<svg xmlns="http://www.w3.org/2000/svg" width="128" height="128" viewBox="0 0 96 96" aria-label="Guinardia_flaccida">
<defs>
<linearGradient id="g-guinardia-flaccida" x1="0" x2="1"><stop offset="0%" stop-color="#F6B15A" stop-opacity="1"/><stop offset="100%" stop-color="#F6B15A" stop-opacity="0.75"/></linearGradient>
<filter id="f-guinardia-flaccida" x="-50%" y="-50%" width="200%" height="200%"><feGaussianBlur stdDeviation="6" result="b"/><feMerge><feMergeNode in="b"/><feMergeNode in="SourceGraphic"/></feMerge></filter>
</defs>
<rect width="100%" height="100%" fill="none"/>
<g filter="url(#f-guinardia-flaccida)"><circle cx="48" cy="48" r="20" fill="none" stroke="url(#g-guinardia-flaccida)" stroke-width="6"/></g>
<circle cx="48" cy="48" r="20" fill="none" stroke="currentColor" stroke-width="2"/>
<line x1="68.00" y1="48.00" x2="58.00" y2="48.00" stroke="currentColor" stroke-width="1.1" stroke-linecap="round"/>
<line x1="65.32" y1="58.00" x2="56.66" y2="53.00" stroke="currentColor" stroke-width="1.1" stroke-linecap="round"/>
<line x1="58.00" y1="65.32" x2="53.00" y2="56.66" stroke="currentColor" stroke-width="1.1" stroke-linecap="round"/>
<line x1="48.00" y1="68.00" x2="48.00" y2="58.00" stroke="currentColor" stroke-width="1.1" stroke-linecap="round"/>
<line x1="38.00" y1="65.32" x2="43.00" y2="56.66" stroke="currentColor" stroke-width="1.1" stroke-linecap="round"/>
<line x1="30.68" y1="58.00" x2="39.34" y2="53.00" stroke="currentColor" stroke-width="1.1" stroke-linecap="round"/>
<line x1="28.00" y1="48.00" x2="38.00" y2="48.00" stroke="currentColor" stroke-width="1.1" stroke-linecap="round"/>
<line x1="30.68" y1="38.00" x2="39.34" y2="43.00" stroke="currentColor" stroke-width="1.1" stroke-linecap="round"/>
<line x1="38.00" y1="30.68" x2="43.00" y2="39.34" stroke="currentColor" stroke-width="1.1" stroke-linecap="round"/>
<line x1="48.00" y1="28.00" x2="48.00" y2="38.00" stroke="currentColor" stroke-width="1.1" stroke-linecap="round"/>
<line x1="58.00" y1="30.68" x2="53.00" y2="39.34" stroke="currentColor" stroke-width="1.1" stroke-linecap="round"/>
<line x1="65.32" y1="38.00" x2="56.66" y2="43.00" stroke="currentColor" stroke-width="1.1" stroke-linecap="round"/>
</svg>